<mxfile host="app.diagrams.net" modified="2022-07-11T04:54:30.805Z" agent="5.0 (Windows)" etag="UqWl82LOPGpCePvHKlRB" version="20.0.4" type="github">
  <diagram id="HormM2U5bh6sfzbdqFR4" name="Page-1">
    <mxGraphModel dx="1754" dy="516" grid="1" gridSize="10" guides="1" tooltips="1" connect="1" arrows="1" fold="1" page="1" pageScale="1" pageWidth="850" pageHeight="1100" math="0" shadow="0">
      <root>
        <mxCell id="0" />
        <mxCell id="1" parent="0" />
        <mxCell id="1qP_tALHP1zKKj7ihe6f-1" value="" style="fontColor=#0066CC;verticalAlign=top;verticalLabelPosition=bottom;labelPosition=center;align=center;html=1;outlineConnect=0;fillColor=#CCCCCC;strokeColor=#6881B3;gradientColor=none;gradientDirection=north;strokeWidth=2;shape=mxgraph.networks.pc;" parent="1" vertex="1">
          <mxGeometry x="170" y="420" width="90" height="60" as="geometry" />
        </mxCell>
        <mxCell id="1qP_tALHP1zKKj7ihe6f-4" value="&lt;div&gt;&lt;br&gt;&lt;/div&gt;" style="aspect=fixed;perimeter=ellipsePerimeter;html=1;align=center;shadow=0;dashed=0;spacingTop=3;image;image=img/lib/active_directory/web_server.svg;" parent="1" vertex="1">
          <mxGeometry x="422.12" y="410" width="56" height="70" as="geometry" />
        </mxCell>
        <mxCell id="1qP_tALHP1zKKj7ihe6f-16" value="" style="group" parent="1" vertex="1" connectable="0">
          <mxGeometry x="300" y="444.5" width="100" height="10" as="geometry" />
        </mxCell>
        <mxCell id="1qP_tALHP1zKKj7ihe6f-17" style="edgeStyle=orthogonalEdgeStyle;rounded=0;orthogonalLoop=1;jettySize=auto;html=1;exitX=1;exitY=0.5;exitDx=0;exitDy=0;" parent="1qP_tALHP1zKKj7ihe6f-16" edge="1">
          <mxGeometry relative="1" as="geometry">
            <mxPoint as="sourcePoint" />
            <mxPoint x="100.00000000000001" as="targetPoint" />
          </mxGeometry>
        </mxCell>
        <mxCell id="1qP_tALHP1zKKj7ihe6f-18" style="edgeStyle=orthogonalEdgeStyle;rounded=0;orthogonalLoop=1;jettySize=auto;html=1;exitX=1;exitY=0.5;exitDx=0;exitDy=0;endArrow=none;endFill=0;startArrow=classic;startFill=1;" parent="1qP_tALHP1zKKj7ihe6f-16" edge="1">
          <mxGeometry relative="1" as="geometry">
            <mxPoint y="10" as="sourcePoint" />
            <mxPoint x="100.00000000000001" y="10" as="targetPoint" />
          </mxGeometry>
        </mxCell>
        <mxCell id="1qP_tALHP1zKKj7ihe6f-25" value="-" style="rounded=0;whiteSpace=wrap;html=1;strokeColor=#999999;fillColor=none;" parent="1" vertex="1">
          <mxGeometry x="-90" y="230" width="380" height="310" as="geometry" />
        </mxCell>
        <mxCell id="yz1c_EQCIqfqv8K53LGh-1" value="" style="shape=image;verticalLabelPosition=bottom;labelBackgroundColor=default;verticalAlign=top;aspect=fixed;imageAspect=0;image=https://www.miyuki-net.co.jp/jp/products/image/Details/g.Nautilusmulti-purpose.png;rotation=-30;" vertex="1" parent="1">
          <mxGeometry x="-70" y="405" width="90.15" height="80" as="geometry" />
        </mxCell>
        <mxCell id="yz1c_EQCIqfqv8K53LGh-6" value="①脳波" style="text;html=1;align=center;verticalAlign=middle;resizable=0;points=[];autosize=1;strokeColor=none;fillColor=none;fontFamily=Noto Sans;fontSource=https%3A%2F%2Ffonts.googleapis.com%2Fcss%3Ffamily%3DNoto%2BSans;fontSize=14;" vertex="1" parent="1">
          <mxGeometry x="47.67" y="420" width="70" height="30" as="geometry" />
        </mxCell>
        <mxCell id="yz1c_EQCIqfqv8K53LGh-13" value="クライアントPC" style="text;html=1;align=center;verticalAlign=middle;resizable=0;points=[];autosize=1;strokeColor=none;fillColor=none;fontFamily=Noto Sans JP;fontSource=https%3A%2F%2Ffonts.googleapis.com%2Fcss%3Ffamily%3DNoto%2BSans%2BJP;fontSize=14;fontColor=#0000CC;" vertex="1" parent="1">
          <mxGeometry x="155" y="490" width="120" height="30" as="geometry" />
        </mxCell>
        <mxCell id="yz1c_EQCIqfqv8K53LGh-14" value="g.Nautilus（脳波計）" style="text;html=1;align=center;verticalAlign=middle;resizable=0;points=[];autosize=1;strokeColor=none;fillColor=none;fontFamily=Noto Sans JP;fontSource=https%3A%2F%2Ffonts.googleapis.com%2Fcss%3Ffamily%3DNoto%2BSans%2BJP;fontSize=14;fontColor=#0000CC;" vertex="1" parent="1">
          <mxGeometry x="-70" y="490" width="160" height="30" as="geometry" />
        </mxCell>
        <mxCell id="yz1c_EQCIqfqv8K53LGh-18" value="海外サーバ" style="text;html=1;align=center;verticalAlign=middle;resizable=0;points=[];autosize=1;strokeColor=none;fillColor=none;fontFamily=Noto Sans JP;fontSource=https%3A%2F%2Ffonts.googleapis.com%2Fcss%3Ffamily%3DNoto%2BSans%2BJP;fontSize=14;fontColor=#0000CC;" vertex="1" parent="1">
          <mxGeometry x="405.12" y="490" width="90" height="30" as="geometry" />
        </mxCell>
        <mxCell id="yz1c_EQCIqfqv8K53LGh-19" value="" style="sketch=0;aspect=fixed;pointerEvents=1;shadow=0;dashed=0;html=1;strokeColor=none;labelPosition=center;verticalLabelPosition=bottom;verticalAlign=top;align=center;fillColor=#3399FF;shape=mxgraph.mscae.enterprise.performance_monitor;fontFamily=Noto Sans;fontSource=https%3A%2F%2Ffonts.googleapis.com%2Fcss%3Ffamily%3DNoto%2BSans;fontSize=14;fontColor=#666666;" vertex="1" parent="1">
          <mxGeometry x="56.67" y="265.2" width="83.33" height="60" as="geometry" />
        </mxCell>
        <mxCell id="yz1c_EQCIqfqv8K53LGh-21" value="" style="shape=image;html=1;verticalAlign=top;verticalLabelPosition=bottom;labelBackgroundColor=#ffffff;imageAspect=0;aspect=fixed;image=https://cdn4.iconfinder.com/data/icons/essentials-73/24/016_-_Speaker-128.png;fontFamily=Noto Sans;fontSource=https%3A%2F%2Ffonts.googleapis.com%2Fcss%3Ffamily%3DNoto%2BSans;fontSize=14;fontColor=#666666;" vertex="1" parent="1">
          <mxGeometry x="122.67" y="250" width="38" height="38" as="geometry" />
        </mxCell>
        <mxCell id="yz1c_EQCIqfqv8K53LGh-22" value="外部モニタ" style="text;html=1;align=center;verticalAlign=middle;resizable=0;points=[];autosize=1;strokeColor=none;fillColor=none;fontFamily=Noto Sans JP;fontSource=https%3A%2F%2Ffonts.googleapis.com%2Fcss%3Ffamily%3DNoto%2BSans%2BJP;fontSize=14;fontColor=#0000CC;" vertex="1" parent="1">
          <mxGeometry x="53.33" y="325.2" width="90" height="30" as="geometry" />
        </mxCell>
        <mxCell id="yz1c_EQCIqfqv8K53LGh-29" value="" style="endArrow=none;html=1;rounded=0;fontFamily=Noto Sans;fontSource=https%3A%2F%2Ffonts.googleapis.com%2Fcss%3Ffamily%3DNoto%2BSans;fontSize=14;fontColor=#666666;startArrow=classic;startFill=1;endFill=0;" edge="1" parent="1">
          <mxGeometry width="50" height="50" relative="1" as="geometry">
            <mxPoint x="148.33" y="355.2" as="sourcePoint" />
            <mxPoint x="188.33" y="395.2" as="targetPoint" />
          </mxGeometry>
        </mxCell>
        <mxCell id="yz1c_EQCIqfqv8K53LGh-30" value="" style="endArrow=none;html=1;rounded=0;fontFamily=Noto Sans;fontSource=https%3A%2F%2Ffonts.googleapis.com%2Fcss%3Ffamily%3DNoto%2BSans;fontSize=14;fontColor=#666666;startArrow=classic;startFill=1;endFill=0;" edge="1" parent="1">
          <mxGeometry width="50" height="50" relative="1" as="geometry">
            <mxPoint x="11.67" y="392.5" as="sourcePoint" />
            <mxPoint x="51.67" y="352.5" as="targetPoint" />
          </mxGeometry>
        </mxCell>
        <mxCell id="yz1c_EQCIqfqv8K53LGh-32" style="edgeStyle=orthogonalEdgeStyle;rounded=0;orthogonalLoop=1;jettySize=auto;html=1;exitX=1;exitY=0.5;exitDx=0;exitDy=0;" edge="1" parent="1">
          <mxGeometry relative="1" as="geometry">
            <mxPoint x="77.32000000000001" y="454.5" as="sourcePoint" />
            <mxPoint x="127.33" y="454.5" as="targetPoint" />
            <Array as="points">
              <mxPoint x="47.31999999999999" y="455.34000000000003" />
              <mxPoint x="47.31999999999999" y="455.34000000000003" />
            </Array>
          </mxGeometry>
        </mxCell>
        <mxCell id="yz1c_EQCIqfqv8K53LGh-33" value="②脳波" style="text;html=1;align=center;verticalAlign=middle;resizable=0;points=[];autosize=1;strokeColor=none;fillColor=none;fontFamily=Noto Sans;fontSource=https%3A%2F%2Ffonts.googleapis.com%2Fcss%3Ffamily%3DNoto%2BSans;fontSize=14;" vertex="1" parent="1">
          <mxGeometry x="313" y="414" width="70" height="30" as="geometry" />
        </mxCell>
        <mxCell id="yz1c_EQCIqfqv8K53LGh-34" value="④処理後データ" style="text;html=1;align=center;verticalAlign=middle;resizable=0;points=[];autosize=1;strokeColor=none;fillColor=none;fontFamily=Noto Sans;fontSource=https%3A%2F%2Ffonts.googleapis.com%2Fcss%3Ffamily%3DNoto%2BSans;fontSize=12;" vertex="1" parent="1">
          <mxGeometry x="295" y="455" width="110" height="30" as="geometry" />
        </mxCell>
        <mxCell id="yz1c_EQCIqfqv8K53LGh-35" value="&lt;div&gt;⑤処理後データ&lt;br&gt;&lt;/div&gt;&lt;div&gt;の投影&lt;/div&gt;" style="text;html=1;align=center;verticalAlign=middle;resizable=0;points=[];autosize=1;strokeColor=none;fillColor=none;fontFamily=Noto Sans;fontSource=https%3A%2F%2Ffonts.googleapis.com%2Fcss%3Ffamily%3DNoto%2BSans;fontSize=12;" vertex="1" parent="1">
          <mxGeometry x="160" y="351.2" width="110" height="40" as="geometry" />
        </mxCell>
        <mxCell id="yz1c_EQCIqfqv8K53LGh-36" value="⑥聴覚視覚&lt;div&gt;フィードバック&lt;br&gt;&lt;/div&gt;" style="text;html=1;align=center;verticalAlign=middle;resizable=0;points=[];autosize=1;strokeColor=none;fillColor=none;fontFamily=Noto Sans;fontSource=https%3A%2F%2Ffonts.googleapis.com%2Fcss%3Ffamily%3DNoto%2BSans;fontSize=12;" vertex="1" parent="1">
          <mxGeometry x="-79.93" y="344.9" width="110" height="40" as="geometry" />
        </mxCell>
        <mxCell id="yz1c_EQCIqfqv8K53LGh-39" value="" style="group;fontColor=#808080;fillColor=default;container=0;" vertex="1" connectable="0" parent="1">
          <mxGeometry x="440" y="320" width="100" height="100" as="geometry" />
        </mxCell>
        <mxCell id="yz1c_EQCIqfqv8K53LGh-41" value="③脳波データの処理" style="text;html=1;align=center;verticalAlign=middle;resizable=0;points=[];autosize=1;strokeColor=none;fillColor=none;fontFamily=Noto Sans;fontSource=https%3A%2F%2Ffonts.googleapis.com%2Fcss%3Ffamily%3DNoto%2BSans;fontSize=14;" vertex="1" parent="1">
          <mxGeometry x="400" y="288" width="150" height="30" as="geometry" />
        </mxCell>
        <mxCell id="yz1c_EQCIqfqv8K53LGh-43" value="" style="group" vertex="1" connectable="0" parent="1">
          <mxGeometry x="43.5" y="550" width="113" height="30" as="geometry" />
        </mxCell>
        <mxCell id="szS9LHgapc463Va7i4r7-2" value="治療施設" style="text;html=1;align=center;verticalAlign=middle;resizable=0;points=[];autosize=1;strokeColor=none;fillColor=none;fontFamily=Noto Sans JP;fontSource=https%3A%2F%2Ffonts.googleapis.com%2Fcss%3Ffamily%3DNoto%2BSans%2BJP;fontSize=16;" parent="yz1c_EQCIqfqv8K53LGh-43" vertex="1">
          <mxGeometry x="23" width="90" height="30" as="geometry" />
        </mxCell>
        <mxCell id="yz1c_EQCIqfqv8K53LGh-42" value="" style="shape=image;html=1;verticalAlign=top;verticalLabelPosition=bottom;labelBackgroundColor=#ffffff;imageAspect=0;aspect=fixed;image=https://cdn1.iconfinder.com/data/icons/bootstrap-vol-3/16/hospital-128.png;fontFamily=Noto Sans;fontSource=https%3A%2F%2Ffonts.googleapis.com%2Fcss%3Ffamily%3DNoto%2BSans;fontSize=16;fontColor=#0000CC;fillColor=#3399FF;" vertex="1" parent="yz1c_EQCIqfqv8K53LGh-43">
          <mxGeometry width="28" height="28" as="geometry" />
        </mxCell>
        <mxCell id="1qP_tALHP1zKKj7ihe6f-31" value="PRISM アプリ" style="shape=mxgraph.signs.healthcare.brain;html=1;pointerEvents=1;fillColor=#000000;strokeColor=none;verticalLabelPosition=bottom;verticalAlign=top;align=center;" parent="1" vertex="1">
          <mxGeometry x="472.59000000000003" y="335" width="34.82" height="30.2" as="geometry" />
        </mxCell>
        <mxCell id="yz1c_EQCIqfqv8K53LGh-38" value="" style="shape=image;html=1;verticalAlign=top;verticalLabelPosition=bottom;labelBackgroundColor=#ffffff;imageAspect=0;aspect=fixed;image=https://cdn2.iconfinder.com/data/icons/essential-web-4/50/comment-bubble-speech-chat-review-128.png;fontFamily=Noto Sans;fontSource=https%3A%2F%2Ffonts.googleapis.com%2Fcss%3Ffamily%3DNoto%2BSans;fontSize=12;fontColor=#666666;fillColor=#3399FF;imageBackground=none;imageBorder=none;sketch=0;" vertex="1" parent="1">
          <mxGeometry x="440" y="320" width="100" height="100" as="geometry" />
        </mxCell>
      </root>
    </mxGraphModel>
  </diagram>
</mxfile>
